<?xml version="1.0" encoding="UTF-8" standalone="no"?><svg xmlns="http://www.w3.org/2000/svg" xmlns:xlink="http://www.w3.org/1999/xlink" contentStyleType="text/css" height="494px" preserveAspectRatio="none" style="width:819px;height:494px;background:#FFFFFF;" version="1.1" viewBox="0 0 819 494" width="819px" zoomAndPan="magnify"><defs/><g><!--MD5=[85946082301f1663af5d45c7b111216d]
cluster serv--><g id="cluster_serv"><rect fill="none" height="389" rx="2.5" ry="2.5" style="stroke:#181818;stroke-width:1.0;" width="651" x="7" y="99.5"/><path d="M133,99.5 L133,110.1094 L123,120.1094 L7,120.1094 " fill="none" style="stroke:#181818;stroke-width:1.0;"/><text fill="#000000" font-family="sans-serif" font-size="14" font-weight="bold" lengthAdjust="spacing" textLength="116" x="10" y="115.0332">Docker Services</text></g><!--MD5=[c26638a81821cf585a88e29a60357529]
cluster s1--><g id="cluster_s1"><polygon fill="none" points="449,153.5,459,143.5,634,143.5,634,454.5,624,464.5,449,464.5,449,153.5" style="stroke:#181818;stroke-width:1.0;"/><line style="stroke:#181818;stroke-width:1.0;" x1="624" x2="634" y1="153.5" y2="143.5"/><line style="stroke:#181818;stroke-width:1.0;" x1="449" x2="624" y1="153.5" y2="153.5"/><line style="stroke:#181818;stroke-width:1.0;" x1="624" x2="624" y1="153.5" y2="464.5"/><text fill="#000000" font-family="sans-serif" font-size="14" font-weight="bold" lengthAdjust="spacing" textLength="56" x="509.5" y="171.0332">Server1</text></g><!--MD5=[08199a91f55f1eee6c032bde60db737c]
cluster s2--><g id="cluster_s2"><polygon fill="none" points="240,153.5,250,143.5,425,143.5,425,454.5,415,464.5,240,464.5,240,153.5" style="stroke:#181818;stroke-width:1.0;"/><line style="stroke:#181818;stroke-width:1.0;" x1="415" x2="425" y1="153.5" y2="143.5"/><line style="stroke:#181818;stroke-width:1.0;" x1="240" x2="415" y1="153.5" y2="153.5"/><line style="stroke:#181818;stroke-width:1.0;" x1="415" x2="415" y1="153.5" y2="464.5"/><text fill="#000000" font-family="sans-serif" font-size="14" font-weight="bold" lengthAdjust="spacing" textLength="56" x="300.5" y="171.0332">Server2</text></g><!--MD5=[e80b2a2e2b06ce4648c08fd86acf756b]
cluster s3--><g id="cluster_s3"><polygon fill="none" points="31,153.5,41,143.5,216,143.5,216,454.5,206,464.5,31,464.5,31,153.5" style="stroke:#181818;stroke-width:1.0;"/><line style="stroke:#181818;stroke-width:1.0;" x1="206" x2="216" y1="153.5" y2="143.5"/><line style="stroke:#181818;stroke-width:1.0;" x1="31" x2="206" y1="153.5" y2="153.5"/><line style="stroke:#181818;stroke-width:1.0;" x1="206" x2="206" y1="153.5" y2="464.5"/><text fill="#000000" font-family="sans-serif" font-size="14" font-weight="bold" lengthAdjust="spacing" textLength="56" x="91.5" y="171.0332">Server3</text></g><!--MD5=[bae29da1e3324d21f5fbf8ae94e107af]
entity h1--><g id="elem_h1"><rect fill="#F1F1F1" height="47.6094" rx="2.5" ry="2.5" style="stroke:#181818;stroke-width:0.5;" width="122" x="465" y="184.5"/><rect fill="#F1F1F1" height="10" style="stroke:#181818;stroke-width:0.5;" width="15" x="567" y="189.5"/><rect fill="#F1F1F1" height="2" style="stroke:#181818;stroke-width:0.5;" width="4" x="565" y="191.5"/><rect fill="#F1F1F1" height="2" style="stroke:#181818;stroke-width:0.5;" width="4" x="565" y="195.5"/><text fill="#000000" font-family="sans-serif" font-size="14" lengthAdjust="spacing" textLength="82" x="480" y="219.0332">HTTP Server</text></g><!--MD5=[97bded9ea8416bc4240d1ecd7eca0282]
entity r1--><g id="elem_r1"><rect fill="#F1F1F1" height="47.6094" rx="2.5" ry="2.5" style="stroke:#181818;stroke-width:0.5;" width="115" x="502.5" y="292.5"/><rect fill="#F1F1F1" height="10" style="stroke:#181818;stroke-width:0.5;" width="15" x="597.5" y="297.5"/><rect fill="#F1F1F1" height="2" style="stroke:#181818;stroke-width:0.5;" width="4" x="595.5" y="299.5"/><rect fill="#F1F1F1" height="2" style="stroke:#181818;stroke-width:0.5;" width="4" x="595.5" y="303.5"/><text fill="#000000" font-family="sans-serif" font-size="14" lengthAdjust="spacing" textLength="75" x="517.5" y="327.0332">RPC Server</text></g><!--MD5=[31e04e4ba69d5ab82161fd651720124c]
entity kv1--><g id="elem_kv1"><rect fill="#F1F1F1" height="47.6094" rx="2.5" ry="2.5" style="stroke:#181818;stroke-width:0.5;" width="96" x="488" y="400.5"/><rect fill="#F1F1F1" height="10" style="stroke:#181818;stroke-width:0.5;" width="15" x="564" y="405.5"/><rect fill="#F1F1F1" height="2" style="stroke:#181818;stroke-width:0.5;" width="4" x="562" y="407.5"/><rect fill="#F1F1F1" height="2" style="stroke:#181818;stroke-width:0.5;" width="4" x="562" y="411.5"/><text fill="#000000" font-family="sans-serif" font-size="14" lengthAdjust="spacing" textLength="56" x="503" y="435.0332">KV Store</text></g><!--MD5=[cdaabcb77b598f36b9a2ca5313e9b545]
entity h2--><g id="elem_h2"><rect fill="#F1F1F1" height="47.6094" rx="2.5" ry="2.5" style="stroke:#181818;stroke-width:0.5;" width="122" x="271" y="184.5"/><rect fill="#F1F1F1" height="10" style="stroke:#181818;stroke-width:0.5;" width="15" x="373" y="189.5"/><rect fill="#F1F1F1" height="2" style="stroke:#181818;stroke-width:0.5;" width="4" x="371" y="191.5"/><rect fill="#F1F1F1" height="2" style="stroke:#181818;stroke-width:0.5;" width="4" x="371" y="195.5"/><text fill="#000000" font-family="sans-serif" font-size="14" lengthAdjust="spacing" textLength="82" x="286" y="219.0332">HTTP Server</text></g><!--MD5=[2d034b0875f5e28a2e66ba2265252e77]
entity r2--><g id="elem_r2"><rect fill="#F1F1F1" height="47.6094" rx="2.5" ry="2.5" style="stroke:#181818;stroke-width:0.5;" width="115" x="293.5" y="292.5"/><rect fill="#F1F1F1" height="10" style="stroke:#181818;stroke-width:0.5;" width="15" x="388.5" y="297.5"/><rect fill="#F1F1F1" height="2" style="stroke:#181818;stroke-width:0.5;" width="4" x="386.5" y="299.5"/><rect fill="#F1F1F1" height="2" style="stroke:#181818;stroke-width:0.5;" width="4" x="386.5" y="303.5"/><text fill="#000000" font-family="sans-serif" font-size="14" lengthAdjust="spacing" textLength="75" x="308.5" y="327.0332">RPC Server</text></g><!--MD5=[9654dc52cee04ccd907ac9fb2c3cb46c]
entity kv2--><g id="elem_kv2"><rect fill="#F1F1F1" height="47.6094" rx="2.5" ry="2.5" style="stroke:#181818;stroke-width:0.5;" width="96" x="279" y="400.5"/><rect fill="#F1F1F1" height="10" style="stroke:#181818;stroke-width:0.5;" width="15" x="355" y="405.5"/><rect fill="#F1F1F1" height="2" style="stroke:#181818;stroke-width:0.5;" width="4" x="353" y="407.5"/><rect fill="#F1F1F1" height="2" style="stroke:#181818;stroke-width:0.5;" width="4" x="353" y="411.5"/><text fill="#000000" font-family="sans-serif" font-size="14" lengthAdjust="spacing" textLength="56" x="294" y="435.0332">KV Store</text></g><!--MD5=[ea439eea5b4ea15407f2df0981c897c1]
entity h3--><g id="elem_h3"><rect fill="#F1F1F1" height="47.6094" rx="2.5" ry="2.5" style="stroke:#181818;stroke-width:0.5;" width="122" x="78" y="184.5"/><rect fill="#F1F1F1" height="10" style="stroke:#181818;stroke-width:0.5;" width="15" x="180" y="189.5"/><rect fill="#F1F1F1" height="2" style="stroke:#181818;stroke-width:0.5;" width="4" x="178" y="191.5"/><rect fill="#F1F1F1" height="2" style="stroke:#181818;stroke-width:0.5;" width="4" x="178" y="195.5"/><text fill="#000000" font-family="sans-serif" font-size="14" lengthAdjust="spacing" textLength="82" x="93" y="219.0332">HTTP Server</text></g><!--MD5=[d236c9e80d6be685e6fcea00aa55c743]
entity r3--><g id="elem_r3"><rect fill="#F1F1F1" height="47.6094" rx="2.5" ry="2.5" style="stroke:#181818;stroke-width:0.5;" width="115" x="84.5" y="292.5"/><rect fill="#F1F1F1" height="10" style="stroke:#181818;stroke-width:0.5;" width="15" x="179.5" y="297.5"/><rect fill="#F1F1F1" height="2" style="stroke:#181818;stroke-width:0.5;" width="4" x="177.5" y="299.5"/><rect fill="#F1F1F1" height="2" style="stroke:#181818;stroke-width:0.5;" width="4" x="177.5" y="303.5"/><text fill="#000000" font-family="sans-serif" font-size="14" lengthAdjust="spacing" textLength="75" x="99.5" y="327.0332">RPC Server</text></g><!--MD5=[d3d129afa6cb952f0db924cf4afeb062]
entity kv3--><g id="elem_kv3"><rect fill="#F1F1F1" height="47.6094" rx="2.5" ry="2.5" style="stroke:#181818;stroke-width:0.5;" width="96" x="70" y="400.5"/><rect fill="#F1F1F1" height="10" style="stroke:#181818;stroke-width:0.5;" width="15" x="146" y="405.5"/><rect fill="#F1F1F1" height="2" style="stroke:#181818;stroke-width:0.5;" width="4" x="144" y="407.5"/><rect fill="#F1F1F1" height="2" style="stroke:#181818;stroke-width:0.5;" width="4" x="144" y="411.5"/><text fill="#000000" font-family="sans-serif" font-size="14" lengthAdjust="spacing" textLength="56" x="85" y="435.0332">KV Store</text></g><!--MD5=[7d46d6cd919e02e6168a09ad91eae8b4]
entity u--><g id="elem_u"><ellipse cx="332" cy="14" fill="#F1F1F1" rx="8" ry="8" style="stroke:#181818;stroke-width:0.5;"/><path d="M332,22 L332,49 M319,30 L345,30 M332,49 L319,64 M332,49 L345,64 " fill="none" style="stroke:#181818;stroke-width:0.5;"/><text fill="#000000" font-family="sans-serif" font-size="14" lengthAdjust="spacing" textLength="29" x="317.5" y="80.0332">User</text></g><!--MD5=[27d8026e1e607fa992f9f5b0cd222a86]
entity net--><g id="elem_net"><path d="M684.027,409.976 C686.249,403.9432 689.6737,403.0171 694.3755,407.5464 C697.8126,402.327 701.9253,401.112 705.7167,407.1908 C708.3795,401.2799 714.0611,399.887 718.3631,405.3715 C721.8378,400.9724 726.4395,401.427 729.3023,406.1086 C730.701,400.0555 735.0904,399.0394 739.1605,403.6356 C744.2605,398.8941 748.8047,399.8903 751.8223,406.0535 C755.6166,401.5252 759.5991,401.767 762.6813,406.8575 C766.1271,402.1671 772.0028,401.3521 774.4112,407.9368 C777.8151,402.983 782.5171,405.0826 784.2838,409.6369 C788.0362,402.9027 791.7654,403.0051 796.2013,408.9968 C807.3471,408.2529 812.34,416.0142 806.7913,425.795 C811.615,435.8359 807.3467,440.5864 797.2067,441.4885 C793.7616,447.8775 789.3244,448.1236 784.3853,443.1785 C781.6579,449.2799 777.262,450.319 772.9461,444.7333 C770.1059,449.1592 767.1462,450.2582 763.4738,445.6012 C760.9241,451.6644 755.5279,453.0301 751.2018,447.4781 C748.0382,452.6985 743.7082,452.5808 739.8835,448.2625 C735.7472,452.0468 731.1744,450.3731 729.4546,445.3885 C726.1702,451.7452 720.4582,451.6479 716.6767,445.914 C712.323,449.5056 707.9374,448.2341 705.9787,443.0082 C702.6307,448.4048 698.6563,448.098 695.2175,443.1023 C690.5936,448.9948 685.893,447.2764 682.6196,441.6281 C673.647,437.5733 674.9197,431.5482 681.1608,426.0673 C674.0566,420.391 675.5583,412.8784 684.027,409.976 " fill="#F1F1F1" style="stroke:#181818;stroke-width:0.5;"/><text fill="#000000" font-family="sans-serif" font-size="14" lengthAdjust="spacing" textLength="99" x="689.5" y="430.0332">Docker Network</text></g><!--MD5=[19d84367b2660e852ddb63f65add312b]
link u to h1--><g id="link_u_h1"><path d="M346.54,50.62 C365.74,57.82 400.04,72.25 425,91.5 C457.98,116.93 488.27,154.44 506.9,179.86 " fill="none" id="u-to-h1" style="stroke:#181818;stroke-width:1.0;"/><polygon fill="#181818" points="510.01,184.15,507.9474,174.5196,507.0674,180.1076,501.4794,179.2276,510.01,184.15" style="stroke:#181818;stroke-width:1.0;"/></g><!--MD5=[da7cbc4deb89f159c51f22ce267fcb61]
link u to h2--><g id="link_u_h2"><path d="M332,83.89 C332,113.19 332,152.88 332,179.3 " fill="none" id="u-to-h2" style="stroke:#181818;stroke-width:1.0;"/><polygon fill="#181818" points="332,184.4,336,175.4,332,179.4,328,175.4,332,184.4" style="stroke:#181818;stroke-width:1.0;"/></g><!--MD5=[ff6bf46472ffee72eaad2de33e955b9e]
link u to h3--><g id="link_u_h3"><path d="M317.29,50.78 C298.24,58.06 264.57,72.47 240,91.5 C207.07,117 176.78,154.49 158.13,179.89 " fill="none" id="u-to-h3" style="stroke:#181818;stroke-width:1.0;"/><polygon fill="#181818" points="155.01,184.18,163.5406,179.2576,157.9526,180.1376,157.0726,174.5496,155.01,184.18" style="stroke:#181818;stroke-width:1.0;"/></g><!--MD5=[33ca3acbd770c26d2acf0c1c3e978cce]
link h1 to r1--><g id="link_h1_r1"><path d="M533.38,232.5 C538.51,248.5 545.39,269.95 550.87,287.03 " fill="none" id="h1-to-r1" style="stroke:#181818;stroke-width:1.0;"/><polygon fill="#181818" points="552.52,292.18,553.575,282.3878,550.9904,287.4197,545.9585,284.8351,552.52,292.18" style="stroke:#181818;stroke-width:1.0;"/></g><!--MD5=[81a7170e4c82b7e6cf342b348dd20b2e]
link h2 to r2--><g id="link_h2_r2"><path d="M336.12,232.5 C338.99,248.5 342.83,269.95 345.9,287.03 " fill="none" id="h2-to-r2" style="stroke:#181818;stroke-width:1.0;"/><polygon fill="#181818" points="346.82,292.18,349.165,282.6144,345.9356,287.2588,341.2912,284.0294,346.82,292.18" style="stroke:#181818;stroke-width:1.0;"/></g><!--MD5=[e5e680d8260900c58bc59928d92446d6]
link h3 to r3--><g id="link_h3_r3"><path d="M139.65,232.5 C140.1,248.5 140.71,269.95 141.19,287.03 " fill="none" id="h3-to-r3" style="stroke:#181818;stroke-width:1.0;"/><polygon fill="#181818" points="141.34,292.18,145.0813,283.0694,141.1972,287.182,137.0846,283.2979,141.34,292.18" style="stroke:#181818;stroke-width:1.0;"/></g><!--MD5=[c01950c292f5ff78dba1b8f745052686]
link r1 to net--><g id="link_r1_net"><path d="M603.48,343.25 C631.42,359.79 667.58,381.21 695.52,397.75 " fill="none" id="r1-net" style="stroke:#181818;stroke-width:1.0;"/><polygon fill="#181818" points="699.93,400.36,694.239,392.3218,695.6325,397.8043,690.15,399.1978,699.93,400.36" style="stroke:#181818;stroke-width:1.0;"/><polygon fill="#181818" points="598.84,340.5,604.5507,348.5242,603.1438,343.0451,608.6229,341.6381,598.84,340.5" style="stroke:#181818;stroke-width:1.0;"/></g><!--MD5=[059e7cc75b1d25c666ce2ff58b5ed85a]
link r2 to net--><g id="link_r2_net"><path d="M413.74,334.64 C483.64,353.74 596.36,384.53 669.05,404.39 " fill="none" id="r2-net" style="stroke:#181818;stroke-width:1.0;"/><polygon fill="#181818" points="674.21,405.8,666.5765,399.5767,669.3855,404.4868,664.4754,407.2959,674.21,405.8" style="stroke:#181818;stroke-width:1.0;"/><polygon fill="#181818" points="408.67,333.25,416.3035,339.4733,413.4945,334.5632,418.4046,331.7541,408.67,333.25" style="stroke:#181818;stroke-width:1.0;"/></g><!--MD5=[4fb9eafeb1933c671dd84d1a36bee25e]
link r3 to net--><g id="link_r3_net"><path d="M204.61,332.97 C216.33,335.65 228.51,338.28 240,340.5 C413.91,374.1 459.84,368.2 634,400.5 C645.48,402.63 657.62,405.09 669.41,407.6 " fill="none" id="r3-net" style="stroke:#181818;stroke-width:1.0;"/><polygon fill="#181818" points="674.44,408.67,666.486,402.8619,669.5525,407.6155,664.7988,410.682,674.44,408.67" style="stroke:#181818;stroke-width:1.0;"/><polygon fill="#181818" points="199.62,331.83,207.5015,337.7361,204.4941,332.9449,209.2853,329.9375,199.62,331.83" style="stroke:#181818;stroke-width:1.0;"/></g><!--MD5=[bfd683c2d9166148f13246c99d8c99fe]
link h1 to kv1--><g id="link_h1_kv1"><path d="M510.37,232.57 C494.67,258.65 474.24,302.43 485,340.5 C490.72,360.73 502.91,380.89 513.94,396.27 " fill="none" id="h1-to-kv1" style="stroke:#181818;stroke-width:1.0;"/><polygon fill="#181818" points="517.01,400.48,514.9474,390.8496,514.0674,396.4376,508.4794,395.5576,517.01,400.48" style="stroke:#181818;stroke-width:1.0;"/></g><!--MD5=[7b618a4967631c1fd5c7bd689ced8b3d]
link h2 to kv2--><g id="link_h2_kv2"><path d="M310.89,232.56 C298.06,248.2 282.86,270.06 276,292.5 C269.76,312.9 270.2,319.97 276,340.5 C281.72,360.73 293.91,380.89 304.94,396.27 " fill="none" id="h2-to-kv2" style="stroke:#181818;stroke-width:1.0;"/><polygon fill="#181818" points="308.01,400.48,305.9474,390.8496,305.0674,396.4376,299.4794,395.5576,308.01,400.48" style="stroke:#181818;stroke-width:1.0;"/></g><!--MD5=[e2dc44c1f5dd86a3d1beed206401795b]
link h3 to kv3--><g id="link_h3_kv3"><path d="M110.52,232.8 C94.39,247.9 75.74,269.09 67,292.5 C53.55,328.53 75.98,369.83 95.21,396.27 " fill="none" id="h3-to-kv3" style="stroke:#181818;stroke-width:1.0;"/><polygon fill="#181818" points="98.27,400.38,96.1305,390.7663,95.2952,396.3612,89.7004,395.526,98.27,400.38" style="stroke:#181818;stroke-width:1.0;"/></g><!--MD5=[323f64ab984b49b59fc097722ea97f57]
link r1 to kv1--><g id="link_r1_kv1"><path d="M554.79,340.5 C551.17,356.5 546.31,377.95 542.45,395.03 " fill="none" id="r1-to-kv1" style="stroke:#181818;stroke-width:1.0;"/><polygon fill="#181818" points="541.28,400.18,547.1641,392.2821,542.3813,395.3028,539.3606,390.52,541.28,400.18" style="stroke:#181818;stroke-width:1.0;"/></g><!--MD5=[b8bd81288f9693e7c27743c05a564f14]
link r2 to kv2--><g id="link_r2_kv2"><path d="M345.79,340.5 C342.17,356.5 337.31,377.95 333.45,395.03 " fill="none" id="r2-to-kv2" style="stroke:#181818;stroke-width:1.0;"/><polygon fill="#181818" points="332.28,400.18,338.1641,392.2821,333.3813,395.3028,330.3606,390.52,332.28,400.18" style="stroke:#181818;stroke-width:1.0;"/></g><!--MD5=[5b6d4f5a5a24e058818e0f60182d77c7]
link r3 to kv3--><g id="link_r3_kv3"><path d="M136.79,340.5 C133.17,356.5 128.31,377.95 124.45,395.03 " fill="none" id="r3-to-kv3" style="stroke:#181818;stroke-width:1.0;"/><polygon fill="#181818" points="123.28,400.18,129.1641,392.2821,124.3813,395.3028,121.3606,390.52,123.28,400.18" style="stroke:#181818;stroke-width:1.0;"/></g><!--MD5=[151125bb81f8b6e72f8012374542e821]
@startuml 物理结构

actor User as u

frame "Docker Services" as serv {
    node Server1 as s1{
        component "HTTP Server" as h1
        component "RPC Server" as r1
        component "KV Store" as kv1
    }
    node Server2 as s2 {
        component "HTTP Server" as h2
        component "RPC Server" as r2
        component "KV Store" as kv2
    }
    node Server3 as s3 {
        component "HTTP Server" as h3
        component "RPC Server" as r3
        component "KV Store" as kv3
    }
}

cloud "Docker Network" as net

u - -> h1
u - -> h2
u - -> h3

h1 - -> r1
h2 - -> r2
h3 - -> r3
r1 <- -> net
r2 <- -> net
r3 <- -> net

h1 - -> kv1
h2 - -> kv2
h3 - -> kv3
r1 - -> kv1
r2 - -> kv2
r3 - -> kv3

@enduml

PlantUML version 1.2022.7(Tue Aug 23 01:01:30 CST 2022)
(GPL source distribution)
Java Runtime: OpenJDK Runtime Environment
JVM: OpenJDK 64-Bit Server VM
Default Encoding: UTF-8
Language: zh
Country: CN
--></g></svg>